# MagicaVoxel @ ephtracy

# material
mtllib chinaman.mtl
usemtl palette

# normals
vn -1 0 0
vn 1 0 0
vn 0 0 1
vn 0 0 -1
vn 0 -1 0
vn 0 1 0

# texcoords
vt 0.0175781 0.5
vt 0.158203 0.5
vt 0.912109 0.5
vt 0.919922 0.5
vt 0.970703 0.5
vt 0.990234 0.5

# verts
v -4.5 9 2.5
v -4.5 9 1.5
v -4.5 10 2.5
v -4.5 10 1.5
v -3.5 1 0.5
v -3.5 1 -0.5
v -3.5 2 2.5
v -3.5 2 0.5
v -3.5 2 -0.5
v -3.5 2 -1.5
v -3.5 2 -2.5
v -3.5 5 0.5
v -3.5 5 -0.5
v -3.5 6 0.5
v -3.5 6 -1.5
v -3.5 9 2.5
v -3.5 9 1.5
v -3.5 10 1.5
v -3.5 10 -2.5
v -2.5 0 0.5
v -2.5 0 -0.5
v -2.5 1 1.5
v -2.5 1 0.5
v -2.5 1 -0.5
v -2.5 1 -1.5
v -2.5 2 1.5
v -2.5 2 0.5
v -2.5 2 -0.5
v -2.5 2 -1.5
v -2.5 5 0.5
v -2.5 5 -0.5
v -2.5 5 -2.5
v -2.5 5 -3.5
v -2.5 6 0.5
v -2.5 6 -1.5
v -2.5 10 2.5
v -2.5 10 -2.5
v -2.5 10 -3.5
v -2.5 11 2.5
v -2.5 11 -2.5
v -1.5 2 3.5
v -1.5 2 2.5
v -1.5 5 2.5
v -1.5 7 3.5
v -1.5 7 2.5
v -1.5 11 1.5
v -1.5 11 -2.5
v -1.5 12 0.5
v -1.5 12 -2.5
v -1.5 13 1.5
v -1.5 13 0.5
v -0.5 10 -2.5
v -0.5 10 -3.5
v -0.5 11 2.5
v -0.5 11 1.5
v -0.5 11 -2.5
v -0.5 11 -3.5
v -0.5 12 2.5
v -0.5 12 1.5
v -0.5 12 0.5
v -0.5 12 -1.5
v -0.5 13 1.5
v -0.5 13 0.5
v -0.5 13 -1.5
v -0.5 14 1.5
v -0.5 14 0.5
v 0.5 2 3.5
v 0.5 2 2.5
v 0.5 5 2.5
v 0.5 6 3.5
v 0.5 6 2.5
v 0.5 11 -1.5
v 0.5 11 -2.5
v 0.5 12 -1.5
v 0.5 12 -2.5
v 1.5 0 0.5
v 1.5 0 -0.5
v 1.5 1 0.5
v 1.5 1 -0.5
v 2.5 2 2.5
v 2.5 2 1.5
v 2.5 5 2.5
v 2.5 5 1.5
v -2.5 2 2.5
v -2.5 2 1.5
v -2.5 5 2.5
v -2.5 5 1.5
v -1.5 0 0.5
v -1.5 0 -0.5
v -1.5 1 0.5
v -1.5 1 -0.5
v -0.5 2 3.5
v -0.5 2 2.5
v -0.5 5 2.5
v -0.5 6 3.5
v -0.5 6 2.5
v -0.5 11 -1.5
v -0.5 11 -2.5
v -0.5 12 -1.5
v -0.5 12 -2.5
v 0.5 10 -2.5
v 0.5 10 -3.5
v 0.5 11 2.5
v 0.5 11 1.5
v 0.5 11 -2.5
v 0.5 11 -3.5
v 0.5 12 2.5
v 0.5 12 1.5
v 0.5 12 0.5
v 0.5 12 -1.5
v 0.5 13 1.5
v 0.5 13 0.5
v 0.5 13 -1.5
v 0.5 14 1.5
v 0.5 14 0.5
v 1.5 2 3.5
v 1.5 2 2.5
v 1.5 5 2.5
v 1.5 7 3.5
v 1.5 7 2.5
v 1.5 11 1.5
v 1.5 11 -2.5
v 1.5 12 0.5
v 1.5 12 -2.5
v 1.5 13 1.5
v 1.5 13 0.5
v 2.5 0 0.5
v 2.5 0 -0.5
v 2.5 1 1.5
v 2.5 1 0.5
v 2.5 1 -0.5
v 2.5 1 -1.5
v 2.5 2 1.5
v 2.5 2 0.5
v 2.5 2 -0.5
v 2.5 2 -1.5
v 2.5 5 0.5
v 2.5 5 -0.5
v 2.5 5 -2.5
v 2.5 5 -3.5
v 2.5 6 0.5
v 2.5 6 -1.5
v 2.5 10 2.5
v 2.5 10 -2.5
v 2.5 10 -3.5
v 2.5 11 2.5
v 2.5 11 -2.5
v 3.5 1 0.5
v 3.5 1 -0.5
v 3.5 2 2.5
v 3.5 2 0.5
v 3.5 2 -0.5
v 3.5 2 -1.5
v 3.5 2 -2.5
v 3.5 5 0.5
v 3.5 5 -0.5
v 3.5 6 0.5
v 3.5 6 -1.5
v 3.5 9 2.5
v 3.5 9 1.5
v 3.5 10 1.5
v 3.5 10 -2.5
v 4.5 9 2.5
v 4.5 9 1.5
v 4.5 10 2.5
v 4.5 10 1.5
v -1.5 2 3.5
v -1.5 7 3.5
v -0.5 2 3.5
v -0.5 6 3.5
v 0.5 2 3.5
v 0.5 6 3.5
v 1.5 2 3.5
v 1.5 7 3.5
v -4.5 9 2.5
v -4.5 10 2.5
v -3.5 2 2.5
v -3.5 9 2.5
v -2.5 2 2.5
v -2.5 5 2.5
v -2.5 8 2.5
v -2.5 9 2.5
v -2.5 10 2.5
v -2.5 11 2.5
v -1.5 5 2.5
v -1.5 7 2.5
v -1.5 8 2.5
v -1.5 9 2.5
v -0.5 5 2.5
v -0.5 6 2.5
v -0.5 11 2.5
v -0.5 12 2.5
v 0.5 5 2.5
v 0.5 6 2.5
v 0.5 11 2.5
v 0.5 12 2.5
v 1.5 5 2.5
v 1.5 7 2.5
v 1.5 8 2.5
v 1.5 9 2.5
v 2.5 2 2.5
v 2.5 5 2.5
v 2.5 8 2.5
v 2.5 9 2.5
v 2.5 10 2.5
v 2.5 11 2.5
v 3.5 2 2.5
v 3.5 9 2.5
v 4.5 9 2.5
v 4.5 10 2.5
v -2.5 1 1.5
v -2.5 2 1.5
v -2.5 5 1.5
v -1.5 11 1.5
v -1.5 13 1.5
v -0.5 5 1.5
v -0.5 11 1.5
v -0.5 12 1.5
v -0.5 13 1.5
v -0.5 14 1.5
v 0.5 5 1.5
v 0.5 11 1.5
v 0.5 12 1.5
v 0.5 13 1.5
v 0.5 14 1.5
v 1.5 11 1.5
v 1.5 13 1.5
v 2.5 1 1.5
v 2.5 2 1.5
v 2.5 5 1.5
v -3.5 1 0.5
v -3.5 2 0.5
v -2.5 0 0.5
v -2.5 1 0.5
v -2.5 2 0.5
v -1.5 0 0.5
v -1.5 1 0.5
v 1.5 0 0.5
v 1.5 1 0.5
v 2.5 0 0.5
v 2.5 1 0.5
v 2.5 2 0.5
v 3.5 1 0.5
v 3.5 2 0.5
v -3.5 2 -1.5
v -3.5 6 -1.5
v -2.5 2 -1.5
v -2.5 6 -1.5
v 2.5 2 -1.5
v 2.5 6 -1.5
v 3.5 2 -1.5
v 3.5 6 -1.5
v -1.5 2 2.5
v -1.5 5 2.5
v -0.5 2 2.5
v -0.5 5 2.5
v 0.5 2 2.5
v 0.5 5 2.5
v 1.5 2 2.5
v 1.5 5 2.5
v -4.5 9 1.5
v -4.5 10 1.5
v -3.5 9 1.5
v -3.5 10 1.5
v 3.5 9 1.5
v 3.5 10 1.5
v 4.5 9 1.5
v 4.5 10 1.5
v -3.5 5 0.5
v -3.5 6 0.5
v -2.5 5 0.5
v -2.5 6 0.5
v -1.5 12 0.5
v -1.5 13 0.5
v -0.5 12 0.5
v -0.5 13 0.5
v -0.5 14 0.5
v 0.5 12 0.5
v 0.5 13 0.5
v 0.5 14 0.5
v 1.5 12 0.5
v 1.5 13 0.5
v 2.5 5 0.5
v 2.5 6 0.5
v 3.5 5 0.5
v 3.5 6 0.5
v -3.5 1 -0.5
v -3.5 2 -0.5
v -3.5 5 -0.5
v -2.5 0 -0.5
v -2.5 1 -0.5
v -2.5 2 -0.5
v -2.5 5 -0.5
v -1.5 0 -0.5
v -1.5 1 -0.5
v 1.5 0 -0.5
v 1.5 1 -0.5
v 2.5 0 -0.5
v 2.5 1 -0.5
v 2.5 2 -0.5
v 2.5 5 -0.5
v 3.5 1 -0.5
v 3.5 2 -0.5
v 3.5 5 -0.5
v -2.5 1 -1.5
v -2.5 2 -1.5
v -0.5 11 -1.5
v -0.5 12 -1.5
v -0.5 13 -1.5
v 0.5 11 -1.5
v 0.5 12 -1.5
v 0.5 13 -1.5
v 2.5 1 -1.5
v 2.5 2 -1.5
v -3.5 2 -2.5
v -3.5 10 -2.5
v -2.5 5 -2.5
v -2.5 10 -2.5
v -2.5 11 -2.5
v -1.5 11 -2.5
v -1.5 12 -2.5
v -0.5 10 -2.5
v -0.5 11 -2.5
v -0.5 12 -2.5
v 0.5 10 -2.5
v 0.5 11 -2.5
v 0.5 12 -2.5
v 1.5 11 -2.5
v 1.5 12 -2.5
v 2.5 5 -2.5
v 2.5 10 -2.5
v 2.5 11 -2.5
v 3.5 2 -2.5
v 3.5 10 -2.5
v -2.5 5 -3.5
v -2.5 10 -3.5
v -0.5 10 -3.5
v -0.5 11 -3.5
v 0.5 10 -3.5
v 0.5 11 -3.5
v 2.5 5 -3.5
v 2.5 10 -3.5
v -2.5 0 0.5
v -1.5 0 0.5
v 1.5 0 0.5
v 2.5 0 0.5
v -2.5 0 -0.5
v -1.5 0 -0.5
v 1.5 0 -0.5
v 2.5 0 -0.5
v -2.5 1 1.5
v 2.5 1 1.5
v -3.5 1 0.5
v -2.5 1 0.5
v -1.5 1 0.5
v 1.5 1 0.5
v 2.5 1 0.5
v 3.5 1 0.5
v -3.5 1 -0.5
v -2.5 1 -0.5
v -1.5 1 -0.5
v 1.5 1 -0.5
v 2.5 1 -0.5
v 3.5 1 -0.5
v -2.5 1 -1.5
v 2.5 1 -1.5
v -1.5 2 3.5
v -0.5 2 3.5
v 0.5 2 3.5
v 1.5 2 3.5
v -3.5 2 2.5
v -2.5 2 2.5
v -1.5 2 2.5
v -0.5 2 2.5
v 0.5 2 2.5
v 1.5 2 2.5
v 2.5 2 2.5
v 3.5 2 2.5
v -2.5 2 1.5
v 2.5 2 1.5
v -3.5 2 0.5
v -2.5 2 0.5
v 2.5 2 0.5
v 3.5 2 0.5
v -3.5 2 -1.5
v -2.5 2 -1.5
v 2.5 2 -1.5
v 3.5 2 -1.5
v -3.5 2 -2.5
v 3.5 2 -2.5
v -2.5 5 2.5
v -1.5 5 2.5
v -0.5 5 2.5
v 0.5 5 2.5
v 1.5 5 2.5
v 2.5 5 2.5
v -2.5 5 1.5
v -0.5 5 1.5
v 0.5 5 1.5
v 2.5 5 1.5
v -2.5 5 -2.5
v 2.5 5 -2.5
v -2.5 5 -3.5
v 2.5 5 -3.5
v -0.5 6 3.5
v 0.5 6 3.5
v -0.5 6 2.5
v 0.5 6 2.5
v -3.5 6 0.5
v -2.5 6 0.5
v 2.5 6 0.5
v 3.5 6 0.5
v -3.5 6 -1.5
v -2.5 6 -1.5
v 2.5 6 -1.5
v 3.5 6 -1.5
v -4.5 9 2.5
v -3.5 9 2.5
v 3.5 9 2.5
v 4.5 9 2.5
v -4.5 9 1.5
v -3.5 9 1.5
v 3.5 9 1.5
v 4.5 9 1.5
v -3.5 5 0.5
v -2.5 5 0.5
v 2.5 5 0.5
v 3.5 5 0.5
v -3.5 5 -0.5
v -2.5 5 -0.5
v 2.5 5 -0.5
v 3.5 5 -0.5
v -1.5 7 3.5
v 1.5 7 3.5
v -1.5 7 2.5
v 1.5 7 2.5
v -4.5 10 2.5
v -2.5 10 2.5
v 2.5 10 2.5
v 4.5 10 2.5
v -4.5 10 1.5
v -3.5 10 1.5
v 3.5 10 1.5
v 4.5 10 1.5
v -3.5 10 -2.5
v -2.5 10 -2.5
v -0.5 10 -2.5
v 0.5 10 -2.5
v 2.5 10 -2.5
v 3.5 10 -2.5
v -2.5 10 -3.5
v -0.5 10 -3.5
v 0.5 10 -3.5
v 2.5 10 -3.5
v -2.5 11 2.5
v -0.5 11 2.5
v 0.5 11 2.5
v 2.5 11 2.5
v -1.5 11 1.5
v -0.5 11 1.5
v 0.5 11 1.5
v 1.5 11 1.5
v -0.5 11 -1.5
v 0.5 11 -1.5
v -2.5 11 -2.5
v -1.5 11 -2.5
v -0.5 11 -2.5
v 0.5 11 -2.5
v 1.5 11 -2.5
v 2.5 11 -2.5
v -0.5 11 -3.5
v 0.5 11 -3.5
v -0.5 12 2.5
v 0.5 12 2.5
v -0.5 12 1.5
v 0.5 12 1.5
v -1.5 12 0.5
v -0.5 12 0.5
v 0.5 12 0.5
v 1.5 12 0.5
v -0.5 12 -1.5
v 0.5 12 -1.5
v -1.5 12 -2.5
v -0.5 12 -2.5
v 0.5 12 -2.5
v 1.5 12 -2.5
v -1.5 13 1.5
v -0.5 13 1.5
v 0.5 13 1.5
v 1.5 13 1.5
v -1.5 13 0.5
v -0.5 13 0.5
v 0.5 13 0.5
v 1.5 13 0.5
v -0.5 13 -1.5
v 0.5 13 -1.5
v -0.5 14 1.5
v 0.5 14 1.5
v -0.5 14 0.5
v 0.5 14 0.5

# faces
f 3/3/1 2/3/1 1/3/1
f 4/3/1 2/3/1 3/3/1
f 8/1/1 6/1/1 5/1/1
f 9/1/1 6/1/1 8/1/1
f 12/3/1 8/3/1 7/3/1
f 12/4/1 9/4/1 8/4/1
f 13/4/1 9/4/1 12/4/1
f 14/3/1 12/3/1 7/3/1
f 15/3/1 11/3/1 10/3/1
f 16/3/1 14/3/1 7/3/1
f 16/3/1 15/3/1 14/3/1
f 17/3/1 15/3/1 16/3/1
f 18/3/1 15/3/1 17/3/1
f 19/3/1 11/3/1 15/3/1
f 19/3/1 15/3/1 18/3/1
f 23/6/1 21/6/1 20/6/1
f 24/6/1 21/6/1 23/6/1
f 26/6/1 23/6/1 22/6/1
f 27/6/1 23/6/1 26/6/1
f 28/6/1 25/6/1 24/6/1
f 29/6/1 25/6/1 28/6/1
f 31/4/1 29/4/1 28/4/1
f 34/4/1 31/4/1 30/4/1
f 35/4/1 29/4/1 31/4/1
f 35/4/1 31/4/1 34/4/1
f 37/3/1 33/3/1 32/3/1
f 38/3/1 33/3/1 37/3/1
f 39/3/1 37/3/1 36/3/1
f 40/3/1 37/3/1 39/3/1
f 43/3/1 42/3/1 41/3/1
f 44/3/1 43/3/1 41/3/1
f 45/3/1 43/3/1 44/3/1
f 48/3/1 47/3/1 46/3/1
f 49/3/1 47/3/1 48/3/1
f 50/3/1 48/3/1 46/3/1
f 51/3/1 48/3/1 50/3/1
f 56/3/1 53/3/1 52/3/1
f 57/3/1 53/3/1 56/3/1
f 58/3/1 55/3/1 54/3/1
f 59/3/1 55/3/1 58/3/1
f 63/3/1 61/3/1 60/3/1
f 64/3/1 61/3/1 63/3/1
f 65/3/1 63/3/1 62/3/1
f 66/3/1 63/3/1 65/3/1
f 69/3/1 68/3/1 67/3/1
f 70/3/1 69/3/1 67/3/1
f 71/3/1 69/3/1 70/3/1
f 74/3/1 73/3/1 72/3/1
f 75/3/1 73/3/1 74/3/1
f 78/6/1 77/6/1 76/6/1
f 79/6/1 77/6/1 78/6/1
f 82/3/1 81/3/1 80/3/1
f 83/3/1 81/3/1 82/3/1
f 84/3/2 85/3/2 86/3/2
f 86/3/2 85/3/2 87/3/2
f 88/6/2 89/6/2 90/6/2
f 90/6/2 89/6/2 91/6/2
f 92/3/2 93/3/2 94/3/2
f 92/3/2 94/3/2 95/3/2
f 95/3/2 94/3/2 96/3/2
f 97/3/2 98/3/2 99/3/2
f 99/3/2 98/3/2 100/3/2
f 101/3/2 102/3/2 105/3/2
f 105/3/2 102/3/2 106/3/2
f 103/3/2 104/3/2 107/3/2
f 107/3/2 104/3/2 108/3/2
f 109/3/2 110/3/2 112/3/2
f 112/3/2 110/3/2 113/3/2
f 111/3/2 112/3/2 114/3/2
f 114/3/2 112/3/2 115/3/2
f 116/3/2 117/3/2 118/3/2
f 116/3/2 118/3/2 119/3/2
f 119/3/2 118/3/2 120/3/2
f 121/3/2 122/3/2 123/3/2
f 123/3/2 122/3/2 124/3/2
f 121/3/2 123/3/2 125/3/2
f 125/3/2 123/3/2 126/3/2
f 127/6/2 128/6/2 130/6/2
f 130/6/2 128/6/2 131/6/2
f 129/6/2 130/6/2 133/6/2
f 133/6/2 130/6/2 134/6/2
f 131/6/2 132/6/2 135/6/2
f 135/6/2 132/6/2 136/6/2
f 135/4/2 136/4/2 138/4/2
f 137/4/2 138/4/2 141/4/2
f 138/4/2 136/4/2 142/4/2
f 141/4/2 138/4/2 142/4/2
f 139/3/2 140/3/2 144/3/2
f 144/3/2 140/3/2 145/3/2
f 143/3/2 144/3/2 146/3/2
f 146/3/2 144/3/2 147/3/2
f 148/1/2 149/1/2 151/1/2
f 151/1/2 149/1/2 152/1/2
f 150/3/2 151/3/2 155/3/2
f 151/4/2 152/4/2 155/4/2
f 155/4/2 152/4/2 156/4/2
f 150/3/2 155/3/2 157/3/2
f 153/3/2 154/3/2 158/3/2
f 150/3/2 157/3/2 159/3/2
f 157/3/2 158/3/2 159/3/2
f 159/3/2 158/3/2 160/3/2
f 160/3/2 158/3/2 161/3/2
f 158/3/2 154/3/2 162/3/2
f 161/3/2 158/3/2 162/3/2
f 163/3/2 164/3/2 165/3/2
f 165/3/2 164/3/2 166/3/2
f 169/3/3 168/3/3 167/3/3
f 170/3/3 168/3/3 169/3/3
f 172/3/3 168/3/3 170/3/3
f 173/3/3 172/3/3 171/3/3
f 174/3/3 168/3/3 172/3/3
f 174/3/3 172/3/3 173/3/3
f 178/3/3 176/3/3 175/3/3
f 179/3/3 178/3/3 177/3/3
f 180/3/3 178/3/3 179/3/3
f 181/3/3 178/3/3 180/3/3
f 182/3/3 176/3/3 178/3/3
f 182/3/3 178/3/3 181/3/3
f 183/3/3 176/3/3 182/3/3
f 185/1/3 181/1/3 180/1/3
f 186/1/3 181/1/3 185/1/3
f 187/2/3 182/2/3 181/2/3
f 187/1/3 181/1/3 186/1/3
f 188/3/3 184/3/3 183/3/3
f 188/2/3 182/2/3 187/2/3
f 188/3/3 183/3/3 182/3/3
f 191/3/3 184/3/3 188/3/3
f 193/5/3 190/5/3 189/5/3
f 194/5/3 190/5/3 193/5/3
f 195/3/3 192/3/3 191/3/3
f 195/3/3 191/3/3 188/3/3
f 196/3/3 192/3/3 195/3/3
f 198/1/3 187/1/3 186/1/3
f 198/1/3 188/1/3 187/1/3
f 199/1/3 188/1/3 198/1/3
f 200/3/3 195/3/3 188/3/3
f 200/1/3 188/1/3 199/1/3
f 202/1/3 199/1/3 198/1/3
f 202/1/3 198/1/3 197/1/3
f 203/2/3 200/2/3 199/2/3
f 203/1/3 199/1/3 202/1/3
f 204/3/3 195/3/3 200/3/3
f 204/2/3 200/2/3 203/2/3
f 205/3/3 195/3/3 204/3/3
f 206/3/3 195/3/3 205/3/3
f 207/3/3 203/3/3 202/3/3
f 207/3/3 202/3/3 201/3/3
f 207/3/3 205/3/3 204/3/3
f 207/3/3 204/3/3 203/3/3
f 208/3/3 205/3/3 207/3/3
f 209/3/3 205/3/3 208/3/3
f 210/3/3 205/3/3 209/3/3
f 216/4/3 213/4/3 212/4/3
f 217/3/3 215/3/3 214/3/3
f 218/3/3 215/3/3 217/3/3
f 219/3/3 215/3/3 218/3/3
f 221/4/3 216/4/3 212/4/3
f 223/3/3 220/3/3 219/3/3
f 223/3/3 219/3/3 218/3/3
f 224/3/3 220/3/3 223/3/3
f 225/3/3 220/3/3 224/3/3
f 226/3/3 223/3/3 222/3/3
f 226/3/3 224/3/3 223/3/3
f 227/3/3 224/3/3 226/3/3
f 228/6/3 212/6/3 211/6/3
f 229/4/3 221/4/3 212/4/3
f 229/6/3 212/6/3 228/6/3
f 230/4/3 221/4/3 229/4/3
f 234/1/3 232/1/3 231/1/3
f 235/1/3 232/1/3 234/1/3
f 236/6/3 234/6/3 233/6/3
f 237/6/3 234/6/3 236/6/3
f 240/6/3 239/6/3 238/6/3
f 241/6/3 239/6/3 240/6/3
f 243/1/3 242/1/3 241/1/3
f 244/1/3 242/1/3 243/1/3
f 247/3/3 246/3/3 245/3/3
f 248/3/3 246/3/3 247/3/3
f 251/3/3 250/3/3 249/3/3
f 252/3/3 250/3/3 251/3/3
f 253/3/4 254/3/4 255/3/4
f 255/3/4 254/3/4 256/3/4
f 257/3/4 258/3/4 259/3/4
f 259/3/4 258/3/4 260/3/4
f 261/3/4 262/3/4 263/3/4
f 263/3/4 262/3/4 264/3/4
f 265/3/4 266/3/4 267/3/4
f 267/3/4 266/3/4 268/3/4
f 269/3/4 270/3/4 271/3/4
f 271/3/4 270/3/4 272/3/4
f 273/3/4 274/3/4 275/3/4
f 275/3/4 274/3/4 276/3/4
f 276/3/4 277/3/4 279/3/4
f 279/3/4 277/3/4 280/3/4
f 278/3/4 279/3/4 281/3/4
f 281/3/4 279/3/4 282/3/4
f 283/3/4 284/3/4 285/3/4
f 285/3/4 284/3/4 286/3/4
f 287/1/4 288/1/4 291/1/4
f 288/4/4 289/4/4 292/4/4
f 291/1/4 288/1/4 292/1/4
f 292/4/4 289/4/4 293/4/4
f 290/6/4 291/6/4 294/6/4
f 294/6/4 291/6/4 295/6/4
f 296/6/4 297/6/4 298/6/4
f 298/6/4 297/6/4 299/6/4
f 299/1/4 300/1/4 302/1/4
f 300/4/4 301/4/4 303/4/4
f 302/1/4 300/1/4 303/1/4
f 303/4/4 301/4/4 304/4/4
f 307/3/4 308/3/4 310/3/4
f 308/3/4 309/3/4 310/3/4
f 310/3/4 309/3/4 311/3/4
f 311/3/4 309/3/4 312/3/4
f 305/6/4 306/6/4 313/6/4
f 313/6/4 306/6/4 314/6/4
f 315/3/4 316/3/4 317/3/4
f 317/3/4 316/3/4 318/3/4
f 318/3/4 319/3/4 320/3/4
f 318/3/4 320/3/4 322/3/4
f 320/3/4 321/3/4 322/3/4
f 322/3/4 321/3/4 323/3/4
f 323/3/4 321/3/4 324/3/4
f 325/3/4 326/3/4 328/3/4
f 326/3/4 327/3/4 328/3/4
f 328/3/4 327/3/4 329/3/4
f 315/3/4 317/3/4 330/3/4
f 325/3/4 328/3/4 331/3/4
f 331/3/4 328/3/4 332/3/4
f 315/3/4 330/3/4 333/3/4
f 330/3/4 331/3/4 333/3/4
f 333/3/4 331/3/4 334/3/4
f 335/3/4 336/3/4 337/3/4
f 335/3/4 337/3/4 339/3/4
f 337/3/4 338/3/4 339/3/4
f 339/3/4 338/3/4 340/3/4
f 335/3/4 339/3/4 341/3/4
f 341/3/4 339/3/4 342/3/4
f 347/6/5 344/6/5 343/6/5
f 348/6/5 344/6/5 347/6/5
f 349/6/5 346/6/5 345/6/5
f 350/6/5 346/6/5 349/6/5
f 354/6/5 352/6/5 351/6/5
f 355/6/5 352/6/5 354/6/5
f 356/6/5 352/6/5 355/6/5
f 357/6/5 352/6/5 356/6/5
f 359/1/5 354/1/5 353/1/5
f 360/1/5 354/1/5 359/1/5
f 361/1/5 356/1/5 355/1/5
f 362/1/5 356/1/5 361/1/5
f 363/1/5 358/1/5 357/1/5
f 364/1/5 358/1/5 363/1/5
f 365/6/5 362/6/5 361/6/5
f 365/6/5 363/6/5 362/6/5
f 365/6/5 361/6/5 360/6/5
f 366/6/5 363/6/5 365/6/5
f 373/3/5 368/3/5 367/3/5
f 374/3/5 368/3/5 373/3/5
f 375/3/5 370/3/5 369/3/5
f 376/3/5 370/3/5 375/3/5
f 379/3/5 372/3/5 371/3/5
f 380/3/5 378/3/5 377/3/5
f 381/3/5 379/3/5 371/3/5
f 382/3/5 379/3/5 381/3/5
f 383/3/5 378/3/5 380/3/5
f 384/3/5 378/3/5 383/3/5
f 389/3/5 386/3/5 385/3/5
f 389/3/5 388/3/5 387/3/5
f 389/3/5 387/3/5 386/3/5
f 390/3/5 388/3/5 389/3/5
f 397/1/5 392/1/5 391/1/5
f 397/1/5 393/1/5 392/1/5
f 398/5/5 394/5/5 393/5/5
f 398/1/5 393/1/5 397/1/5
f 399/1/5 396/1/5 395/1/5
f 399/5/5 394/5/5 398/5/5
f 399/1/5 395/1/5 394/1/5
f 400/1/5 396/1/5 399/1/5
f 403/3/5 402/3/5 401/3/5
f 404/3/5 402/3/5 403/3/5
f 407/3/5 406/3/5 405/3/5
f 408/3/5 406/3/5 407/3/5
f 413/3/5 410/3/5 409/3/5
f 414/3/5 410/3/5 413/3/5
f 415/3/5 412/3/5 411/3/5
f 416/3/5 412/3/5 415/3/5
f 421/3/5 418/3/5 417/3/5
f 422/3/5 418/3/5 421/3/5
f 423/3/5 420/3/5 419/3/5
f 424/3/5 420/3/5 423/3/5
f 425/4/6 426/4/6 429/4/6
f 429/4/6 426/4/6 430/4/6
f 427/4/6 428/4/6 431/4/6
f 431/4/6 428/4/6 432/4/6
f 433/3/6 434/3/6 435/3/6
f 435/3/6 434/3/6 436/3/6
f 437/3/6 438/3/6 441/3/6
f 441/3/6 438/3/6 442/3/6
f 439/3/6 440/3/6 443/3/6
f 443/3/6 440/3/6 444/3/6
f 442/3/6 438/3/6 445/3/6
f 445/3/6 438/3/6 446/3/6
f 439/3/6 443/3/6 449/3/6
f 449/3/6 443/3/6 450/3/6
f 446/3/6 447/3/6 451/3/6
f 451/3/6 447/3/6 452/3/6
f 448/3/6 449/3/6 453/3/6
f 453/3/6 449/3/6 454/3/6
f 455/3/6 456/3/6 459/3/6
f 459/3/6 456/3/6 460/3/6
f 457/3/6 458/3/6 461/3/6
f 461/3/6 458/3/6 462/3/6
f 455/3/6 459/3/6 465/3/6
f 465/3/6 459/3/6 466/3/6
f 463/3/6 464/3/6 467/3/6
f 467/3/6 464/3/6 468/3/6
f 462/3/6 458/3/6 469/3/6
f 469/3/6 458/3/6 470/3/6
f 467/3/6 468/3/6 471/3/6
f 471/3/6 468/3/6 472/3/6
f 473/3/6 474/3/6 475/3/6
f 475/3/6 474/3/6 476/3/6
f 477/3/6 478/3/6 481/3/6
f 479/3/6 480/3/6 482/3/6
f 477/3/6 481/3/6 483/3/6
f 483/3/6 481/3/6 484/3/6
f 482/3/6 480/3/6 485/3/6
f 485/3/6 480/3/6 486/3/6
f 487/3/6 488/3/6 491/3/6
f 491/3/6 488/3/6 492/3/6
f 489/3/6 490/3/6 493/3/6
f 493/3/6 490/3/6 494/3/6
f 492/3/6 493/3/6 495/3/6
f 495/3/6 493/3/6 496/3/6
f 497/3/6 498/3/6 499/3/6
f 499/3/6 498/3/6 500/3/6
