# MagicaVoxel @ ephtracy

# material
mtllib chinaopi.mtl
usemtl palette

# normals
vn -1 0 0
vn 1 0 0
vn 0 0 1
vn 0 0 -1
vn 0 -1 0
vn 0 1 0

# texcoords
vt 0.00195313 0.5
vt 0.0332031 0.5
vt 0.306641 0.5
vt 0.310547 0.5
vt 0.369141 0.5
vt 0.396484 0.5
vt 0.994141 0.5

# verts
v -4 4 2.5
v -4 4 0.5
v -4 5 2.5
v -4 5 0.5
v -4 8 3.5
v -4 8 2.5
v -4 9 3.5
v -4 9 2.5
v -3 1 2.5
v -3 1 -1.5
v -3 3 3.5
v -3 3 2.5
v -3 4 3.5
v -3 4 2.5
v -3 4 0.5
v -3 5 2.5
v -3 5 0.5
v -3 6 2.5
v -3 6 -1.5
v -3 8 2.5
v -3 9 2.5
v -3 10 2.5
v -3 10 -1.5
v -2 0 3.5
v -2 0 2.5
v -2 0 0.5
v -2 0 -0.5
v -2 1 3.5
v -2 1 2.5
v -2 1 0.5
v -2 1 -0.5
v -2 2 3.5
v -2 2 2.5
v -2 3 3.5
v -2 3 2.5
v -2 4 3.5
v -2 4 2.5
v -2 6 3.5
v -2 6 2.5
v -2 10 1.5
v -2 10 -1.5
v -2 11 1.5
v -2 11 -1.5
v -1 1 -1.5
v -1 1 -2.5
v -1 6 3.5
v -1 6 2.5
v -1 6 -1.5
v -1 6 -2.5
v -1 7 3.5
v -1 7 2.5
v -1 10 -1.5
v -1 10 -2.5
v 1 0 0.5
v 1 0 -0.5
v 1 1 0.5
v 1 1 -0.5
v 1 3 -2.5
v 1 3 -3.5
v 1 4 -2.5
v 1 4 -3.5
v 1 8 3.5
v 1 8 2.5
v 1 9 3.5
v 1 9 2.5
v -1 0 3.5
v -1 0 2.5
v -1 0 0.5
v -1 0 -0.5
v -1 1 3.5
v -1 1 2.5
v -1 1 0.5
v -1 1 -0.5
v -1 2 3.5
v -1 2 2.5
v -1 3 3.5
v -1 3 2.5
v -1 4 3.5
v -1 4 2.5
v -1 8 3.5
v -1 8 2.5
v -1 9 3.5
v -1 9 2.5
v 1 4 3.5
v 1 4 2.5
v 1 5 3.5
v 1 5 2.5
v 1 6 3.5
v 1 6 2.5
v 1 7 3.5
v 1 7 2.5
v 2 0 0.5
v 2 0 -0.5
v 2 1 0.5
v 2 1 -0.5
v 2 1 -2.5
v 2 3 -1.5
v 2 3 -2.5
v 2 3 -3.5
v 2 4 -0.5
v 2 4 -1.5
v 2 4 -2.5
v 2 4 -3.5
v 2 5 3.5
v 2 5 2.5
v 2 5 -0.5
v 2 5 -1.5
v 2 6 3.5
v 2 6 2.5
v 2 6 -0.5
v 2 6 -2.5
v 2 10 1.5
v 2 10 -0.5
v 2 10 -1.5
v 2 10 -2.5
v 2 11 1.5
v 2 11 -1.5
v 3 1 2.5
v 3 1 1.5
v 3 1 -0.5
v 3 3 -1.5
v 3 3 -2.5
v 3 4 0.5
v 3 4 -0.5
v 3 4 -1.5
v 3 4 -2.5
v 3 5 0.5
v 3 5 -0.5
v 3 5 -1.5
v 3 6 2.5
v 3 6 1.5
v 3 6 -0.5
v 3 8 2.5
v 3 9 2.5
v 3 10 2.5
v 3 10 -0.5
v 4 4 0.5
v 4 4 -0.5
v 4 5 0.5
v 4 5 -0.5
v 4 8 3.5
v 4 8 2.5
v 4 9 3.5
v 4 9 2.5
v -4 8 3.5
v -4 9 3.5
v -3 3 3.5
v -3 4 3.5
v -2 0 3.5
v -2 1 3.5
v -2 2 3.5
v -2 3 3.5
v -2 4 3.5
v -2 6 3.5
v -1 0 3.5
v -1 1 3.5
v -1 2 3.5
v -1 3 3.5
v -1 4 3.5
v -1 6 3.5
v -1 7 3.5
v -1 8 3.5
v -1 9 3.5
v 1 4 3.5
v 1 5 3.5
v 1 6 3.5
v 1 7 3.5
v 1 8 3.5
v 1 9 3.5
v 2 5 3.5
v 2 6 3.5
v 4 8 3.5
v 4 9 3.5
v -4 4 2.5
v -4 5 2.5
v -3 1 2.5
v -3 3 2.5
v -3 4 2.5
v -3 5 2.5
v -3 6 2.5
v -3 8 2.5
v -3 9 2.5
v -3 10 2.5
v -2 1 2.5
v -2 2 2.5
v -2 3 2.5
v -2 4 2.5
v -2 6 2.5
v -2 7 2.5
v -2 8 2.5
v -1 1 2.5
v -1 2 2.5
v -1 3 2.5
v -1 4 2.5
v -1 6 2.5
v -1 7 2.5
v -1 8 2.5
v -1 9 2.5
v 0 1 2.5
v 0 3 2.5
v 1 3 2.5
v 1 4 2.5
v 1 5 2.5
v 1 6 2.5
v 1 7 2.5
v 1 8 2.5
v 1 9 2.5
v 2 5 2.5
v 2 6 2.5
v 2 7 2.5
v 2 8 2.5
v 3 1 2.5
v 3 6 2.5
v 3 8 2.5
v 3 9 2.5
v 3 10 2.5
v -2 10 1.5
v -2 11 1.5
v 2 10 1.5
v 2 11 1.5
v -2 0 0.5
v -2 1 0.5
v -1 0 0.5
v -1 1 0.5
v 1 0 0.5
v 1 1 0.5
v 2 0 0.5
v 2 1 0.5
v 3 4 0.5
v 3 5 0.5
v 4 4 0.5
v 4 5 0.5
v 2 3 -1.5
v 2 4 -1.5
v 3 3 -1.5
v 3 4 -1.5
v -4 8 2.5
v -4 9 2.5
v -3 8 2.5
v -3 9 2.5
v -2 0 2.5
v -2 1 2.5
v -1 0 2.5
v -1 1 2.5
v 3 8 2.5
v 3 9 2.5
v 4 8 2.5
v 4 9 2.5
v -4 4 0.5
v -4 5 0.5
v -3 4 0.5
v -3 5 0.5
v -2 0 -0.5
v -2 1 -0.5
v -1 0 -0.5
v -1 1 -0.5
v 1 0 -0.5
v 1 1 -0.5
v 2 0 -0.5
v 2 1 -0.5
v 2 4 -0.5
v 2 5 -0.5
v 2 6 -0.5
v 2 10 -0.5
v 3 1 -0.5
v 3 4 -0.5
v 3 5 -0.5
v 3 6 -0.5
v 3 10 -0.5
v 4 4 -0.5
v 4 5 -0.5
v -3 1 -1.5
v -3 6 -1.5
v -3 10 -1.5
v -2 10 -1.5
v -2 11 -1.5
v -1 1 -1.5
v -1 6 -1.5
v -1 10 -1.5
v 2 4 -1.5
v 2 5 -1.5
v 2 10 -1.5
v 2 11 -1.5
v 3 4 -1.5
v 3 5 -1.5
v -1 1 -2.5
v -1 6 -2.5
v -1 10 -2.5
v 1 3 -2.5
v 1 4 -2.5
v 2 1 -2.5
v 2 3 -2.5
v 2 4 -2.5
v 2 6 -2.5
v 2 10 -2.5
v 3 3 -2.5
v 3 4 -2.5
v 1 3 -3.5
v 1 4 -3.5
v 2 3 -3.5
v 2 4 -3.5
v -2 0 3.5
v -1 0 3.5
v -2 0 2.5
v -1 0 2.5
v -2 0 0.5
v -1 0 0.5
v 1 0 0.5
v 2 0 0.5
v -2 0 -0.5
v -1 0 -0.5
v 1 0 -0.5
v 2 0 -0.5
v -3 1 2.5
v -2 1 2.5
v -1 1 2.5
v 0 1 2.5
v 3 1 2.5
v 0 1 1.5
v 3 1 1.5
v -2 1 0.5
v -1 1 0.5
v 1 1 0.5
v 2 1 0.5
v -2 1 -0.5
v -1 1 -0.5
v 1 1 -0.5
v 2 1 -0.5
v 3 1 -0.5
v -3 1 -1.5
v -1 1 -1.5
v -1 1 -2.5
v 2 1 -2.5
v -3 3 3.5
v -2 3 3.5
v -3 3 2.5
v -2 3 2.5
v 2 3 -1.5
v 3 3 -1.5
v 1 3 -2.5
v 2 3 -2.5
v 3 3 -2.5
v 1 3 -3.5
v 2 3 -3.5
v -1 4 3.5
v 1 4 3.5
v -4 4 2.5
v -3 4 2.5
v -1 4 2.5
v 1 4 2.5
v -4 4 0.5
v -3 4 0.5
v 3 4 0.5
v 4 4 0.5
v 2 4 -0.5
v 3 4 -0.5
v 4 4 -0.5
v 2 4 -1.5
v 3 4 -1.5
v 1 5 3.5
v 2 5 3.5
v 1 5 2.5
v 2 5 2.5
v -4 8 3.5
v -1 8 3.5
v 1 8 3.5
v 4 8 3.5
v -4 8 2.5
v -3 8 2.5
v -2 8 2.5
v -1 8 2.5
v 1 8 2.5
v 2 8 2.5
v 3 8 2.5
v 4 8 2.5
v -3 4 3.5
v -2 4 3.5
v -3 4 2.5
v -2 4 2.5
v 2 4 -1.5
v 3 4 -1.5
v 1 4 -2.5
v 2 4 -2.5
v 3 4 -2.5
v 1 4 -3.5
v 2 4 -3.5
v -4 5 2.5
v -3 5 2.5
v -4 5 0.5
v -3 5 0.5
v 3 5 0.5
v 4 5 0.5
v 2 5 -0.5
v 3 5 -0.5
v 4 5 -0.5
v 2 5 -1.5
v 3 5 -1.5
v -2 6 3.5
v -1 6 3.5
v 1 6 3.5
v 2 6 3.5
v -2 6 2.5
v -1 6 2.5
v 1 6 2.5
v 2 6 2.5
v -1 7 3.5
v 1 7 3.5
v -1 7 2.5
v 1 7 2.5
v -4 9 3.5
v -1 9 3.5
v 1 9 3.5
v 4 9 3.5
v -4 9 2.5
v -3 9 2.5
v -1 9 2.5
v 1 9 2.5
v 3 9 2.5
v 4 9 2.5
v -3 10 2.5
v 3 10 2.5
v -2 10 1.5
v 2 10 1.5
v 2 10 -0.5
v 3 10 -0.5
v -3 10 -1.5
v -2 10 -1.5
v -1 10 -1.5
v 2 10 -1.5
v -1 10 -2.5
v 2 10 -2.5
v -2 11 1.5
v 2 11 1.5
v -2 11 -1.5
v 2 11 -1.5

# faces
f 3/3/1 2/3/1 1/3/1
f 4/3/1 2/3/1 3/3/1
f 7/1/1 6/1/1 5/1/1
f 8/1/1 6/1/1 7/1/1
f 12/3/1 10/3/1 9/3/1
f 13/2/1 12/2/1 11/2/1
f 14/3/1 10/3/1 12/3/1
f 14/2/1 12/2/1 13/2/1
f 15/3/1 10/3/1 14/3/1
f 17/3/1 10/3/1 15/3/1
f 18/3/1 17/3/1 16/3/1
f 19/3/1 10/3/1 17/3/1
f 19/3/1 17/3/1 18/3/1
f 20/2/1 19/2/1 18/2/1
f 21/2/1 19/2/1 20/2/1
f 22/2/1 19/2/1 21/2/1
f 23/2/1 19/2/1 22/2/1
f 28/6/1 25/6/1 24/6/1
f 29/6/1 25/6/1 28/6/1
f 30/7/1 27/7/1 26/7/1
f 31/7/1 27/7/1 30/7/1
f 32/5/1 29/5/1 28/5/1
f 33/5/1 29/5/1 32/5/1
f 34/6/1 33/6/1 32/6/1
f 35/6/1 33/6/1 34/6/1
f 38/1/1 37/1/1 36/1/1
f 39/1/1 37/1/1 38/1/1
f 42/2/1 41/2/1 40/2/1
f 43/2/1 41/2/1 42/2/1
f 48/3/1 45/3/1 44/3/1
f 49/3/1 45/3/1 48/3/1
f 50/1/1 47/1/1 46/1/1
f 51/1/1 47/1/1 50/1/1
f 52/2/1 49/2/1 48/2/1
f 53/2/1 49/2/1 52/2/1
f 56/7/1 55/7/1 54/7/1
f 57/7/1 55/7/1 56/7/1
f 60/2/1 59/2/1 58/2/1
f 61/2/1 59/2/1 60/2/1
f 64/1/1 63/1/1 62/1/1
f 65/1/1 63/1/1 64/1/1
f 66/6/2 67/6/2 70/6/2
f 70/6/2 67/6/2 71/6/2
f 68/7/2 69/7/2 72/7/2
f 72/7/2 69/7/2 73/7/2
f 70/5/2 71/5/2 74/5/2
f 74/5/2 71/5/2 75/5/2
f 74/6/2 75/6/2 76/6/2
f 76/6/2 75/6/2 77/6/2
f 76/2/2 77/2/2 78/2/2
f 78/2/2 77/2/2 79/2/2
f 80/1/2 81/1/2 82/1/2
f 82/1/2 81/1/2 83/1/2
f 84/1/2 85/1/2 86/1/2
f 86/1/2 85/1/2 87/1/2
f 88/1/2 89/1/2 90/1/2
f 90/1/2 89/1/2 91/1/2
f 92/7/2 93/7/2 94/7/2
f 94/7/2 93/7/2 95/7/2
f 95/3/2 96/3/2 97/3/2
f 97/3/2 96/3/2 98/3/2
f 95/3/2 97/3/2 100/3/2
f 100/3/2 97/3/2 101/3/2
f 98/2/2 99/2/2 102/2/2
f 102/2/2 99/2/2 103/2/2
f 101/3/2 102/3/2 107/3/2
f 104/1/2 105/1/2 108/1/2
f 108/1/2 105/1/2 109/1/2
f 106/3/2 107/3/2 110/3/2
f 107/3/2 102/3/2 111/3/2
f 110/3/2 107/3/2 111/3/2
f 110/2/2 111/2/2 113/2/2
f 113/2/2 111/2/2 114/2/2
f 114/2/2 111/2/2 115/2/2
f 112/2/2 113/2/2 116/2/2
f 113/2/2 114/2/2 116/2/2
f 116/2/2 114/2/2 117/2/2
f 119/3/2 120/3/2 123/3/2
f 123/3/2 120/3/2 124/3/2
f 121/3/2 122/3/2 125/3/2
f 125/3/2 122/3/2 126/3/2
f 119/3/2 123/3/2 127/3/2
f 124/3/2 125/3/2 128/3/2
f 128/3/2 125/3/2 129/3/2
f 118/4/2 119/4/2 130/4/2
f 119/3/2 127/3/2 131/3/2
f 130/4/2 119/4/2 131/4/2
f 127/3/2 128/3/2 131/3/2
f 131/3/2 128/3/2 132/3/2
f 130/2/2 131/2/2 133/2/2
f 131/2/2 132/2/2 133/2/2
f 133/2/2 132/2/2 134/2/2
f 134/2/2 132/2/2 135/2/2
f 135/2/2 132/2/2 136/2/2
f 137/3/2 138/3/2 139/3/2
f 139/3/2 138/3/2 140/3/2
f 141/1/2 142/1/2 143/1/2
f 143/1/2 142/1/2 144/1/2
f 152/2/3 148/2/3 147/2/3
f 153/2/3 148/2/3 152/2/3
f 155/6/3 150/6/3 149/6/3
f 156/5/3 151/5/3 150/5/3
f 156/6/3 150/6/3 155/6/3
f 157/6/3 152/6/3 151/6/3
f 157/5/3 151/5/3 156/5/3
f 158/2/3 153/2/3 152/2/3
f 158/6/3 152/6/3 157/6/3
f 159/1/3 154/1/3 153/1/3
f 159/2/3 153/2/3 158/2/3
f 160/1/3 154/1/3 159/1/3
f 162/1/3 146/1/3 145/1/3
f 163/1/3 146/1/3 162/1/3
f 164/1/3 161/1/3 160/1/3
f 164/1/3 160/1/3 159/1/3
f 165/1/3 161/1/3 164/1/3
f 166/1/3 161/1/3 165/1/3
f 167/1/3 161/1/3 166/1/3
f 170/1/3 166/1/3 165/1/3
f 171/1/3 166/1/3 170/1/3
f 172/1/3 169/1/3 168/1/3
f 173/1/3 169/1/3 172/1/3
f 178/3/3 175/3/3 174/3/3
f 179/3/3 175/3/3 178/3/3
f 184/3/3 177/3/3 176/3/3
f 185/3/3 177/3/3 184/3/3
f 186/3/3 177/3/3 185/3/3
f 187/3/3 179/3/3 178/3/3
f 187/3/3 180/3/3 179/3/3
f 188/2/3 181/2/3 180/2/3
f 188/3/3 180/3/3 187/3/3
f 189/2/3 181/2/3 188/2/3
f 190/2/3 181/2/3 189/2/3
f 195/2/3 189/2/3 188/2/3
f 196/7/3 190/7/3 189/7/3
f 196/2/3 189/2/3 195/2/3
f 197/7/3 190/7/3 196/7/3
f 198/2/3 183/2/3 182/2/3
f 199/3/3 194/3/3 193/3/3
f 199/3/3 192/3/3 191/3/3
f 199/3/3 193/3/3 192/3/3
f 200/3/3 194/3/3 199/3/3
f 201/4/3 200/4/3 199/4/3
f 201/3/3 194/3/3 200/3/3
f 202/3/3 194/3/3 201/3/3
f 205/2/3 197/2/3 196/2/3
f 205/2/3 198/2/3 197/2/3
f 206/2/3 198/2/3 205/2/3
f 207/2/3 183/2/3 198/2/3
f 207/2/3 198/2/3 206/2/3
f 208/4/3 203/4/3 202/4/3
f 208/4/3 202/4/3 201/4/3
f 209/2/3 205/2/3 204/2/3
f 210/7/3 206/7/3 205/7/3
f 210/2/3 205/2/3 209/2/3
f 211/7/3 206/7/3 210/7/3
f 212/4/3 208/4/3 201/4/3
f 212/4/3 209/4/3 208/4/3
f 212/4/3 201/4/3 199/4/3
f 213/2/3 211/2/3 210/2/3
f 213/4/3 209/4/3 212/4/3
f 213/2/3 210/2/3 209/2/3
f 214/2/3 211/2/3 213/2/3
f 215/2/3 183/2/3 207/2/3
f 216/2/3 183/2/3 215/2/3
f 219/2/3 218/2/3 217/2/3
f 220/2/3 218/2/3 219/2/3
f 223/7/3 222/7/3 221/7/3
f 224/7/3 222/7/3 223/7/3
f 227/7/3 226/7/3 225/7/3
f 228/7/3 226/7/3 227/7/3
f 231/3/3 230/3/3 229/3/3
f 232/3/3 230/3/3 231/3/3
f 235/3/3 234/3/3 233/3/3
f 236/3/3 234/3/3 235/3/3
f 237/1/4 238/1/4 239/1/4
f 239/1/4 238/1/4 240/1/4
f 241/6/4 242/6/4 243/6/4
f 243/6/4 242/6/4 244/6/4
f 245/1/4 246/1/4 247/1/4
f 247/1/4 246/1/4 248/1/4
f 249/3/4 250/3/4 251/3/4
f 251/3/4 250/3/4 252/3/4
f 253/7/4 254/7/4 255/7/4
f 255/7/4 254/7/4 256/7/4
f 257/7/4 258/7/4 259/7/4
f 259/7/4 258/7/4 260/7/4
f 260/3/4 261/3/4 265/3/4
f 265/3/4 261/3/4 266/3/4
f 262/3/4 263/3/4 267/3/4
f 263/2/4 264/2/4 268/2/4
f 267/3/4 263/3/4 268/3/4
f 268/2/4 264/2/4 269/2/4
f 266/3/4 267/3/4 270/3/4
f 270/3/4 267/3/4 271/3/4
f 273/2/4 274/2/4 275/2/4
f 272/3/4 273/3/4 277/3/4
f 275/2/4 276/2/4 278/2/4
f 277/3/4 273/3/4 278/3/4
f 273/2/4 275/2/4 278/2/4
f 278/2/4 276/2/4 279/2/4
f 279/2/4 276/2/4 282/2/4
f 282/2/4 276/2/4 283/2/4
f 280/3/4 281/3/4 284/3/4
f 284/3/4 281/3/4 285/3/4
f 286/3/4 287/3/4 289/3/4
f 289/3/4 287/3/4 290/3/4
f 286/3/4 289/3/4 291/3/4
f 291/3/4 289/3/4 292/3/4
f 290/3/4 287/3/4 293/3/4
f 287/2/4 288/2/4 294/2/4
f 293/3/4 287/3/4 294/3/4
f 294/2/4 288/2/4 295/2/4
f 292/3/4 293/3/4 296/3/4
f 296/3/4 293/3/4 297/3/4
f 298/2/4 299/2/4 300/2/4
f 300/2/4 299/2/4 301/2/4
f 304/6/5 303/6/5 302/6/5
f 305/6/5 303/6/5 304/6/5
f 310/7/5 307/7/5 306/7/5
f 311/7/5 307/7/5 310/7/5
f 312/7/5 309/7/5 308/7/5
f 313/7/5 309/7/5 312/7/5
f 319/3/5 315/3/5 314/3/5
f 319/4/5 318/4/5 317/4/5
f 319/3/5 317/3/5 316/3/5
f 319/3/5 316/3/5 315/3/5
f 320/4/5 318/4/5 319/4/5
f 321/3/5 319/3/5 314/3/5
f 321/3/5 320/3/5 319/3/5
f 322/3/5 320/3/5 321/3/5
f 323/3/5 320/3/5 322/3/5
f 324/3/5 320/3/5 323/3/5
f 325/3/5 321/3/5 314/3/5
f 326/3/5 323/3/5 322/3/5
f 327/3/5 323/3/5 326/3/5
f 328/3/5 320/3/5 324/3/5
f 329/3/5 320/3/5 328/3/5
f 330/3/5 327/3/5 326/3/5
f 330/3/5 325/3/5 314/3/5
f 330/3/5 328/3/5 327/3/5
f 330/3/5 326/3/5 325/3/5
f 331/3/5 328/3/5 330/3/5
f 332/3/5 328/3/5 331/3/5
f 333/3/5 328/3/5 332/3/5
f 336/2/5 335/2/5 334/2/5
f 337/2/5 335/2/5 336/2/5
f 341/3/5 339/3/5 338/3/5
f 342/3/5 339/3/5 341/3/5
f 343/2/5 341/2/5 340/2/5
f 344/2/5 341/2/5 343/2/5
f 349/1/5 346/1/5 345/1/5
f 350/1/5 346/1/5 349/1/5
f 351/3/5 348/3/5 347/3/5
f 352/3/5 348/3/5 351/3/5
f 356/3/5 354/3/5 353/3/5
f 357/3/5 354/3/5 356/3/5
f 358/3/5 356/3/5 355/3/5
f 359/3/5 356/3/5 358/3/5
f 362/1/5 361/1/5 360/1/5
f 363/1/5 361/1/5 362/1/5
f 368/1/5 365/1/5 364/1/5
f 369/1/5 365/1/5 368/1/5
f 370/1/5 365/1/5 369/1/5
f 371/1/5 365/1/5 370/1/5
f 372/1/5 367/1/5 366/1/5
f 373/1/5 367/1/5 372/1/5
f 374/1/5 367/1/5 373/1/5
f 375/1/5 367/1/5 374/1/5
f 376/2/6 377/2/6 378/2/6
f 378/2/6 377/2/6 379/2/6
f 380/3/6 381/3/6 383/3/6
f 383/3/6 381/3/6 384/3/6
f 382/2/6 383/2/6 385/2/6
f 385/2/6 383/2/6 386/2/6
f 387/3/6 388/3/6 389/3/6
f 389/3/6 388/3/6 390/3/6
f 391/3/6 392/3/6 394/3/6
f 394/3/6 392/3/6 395/3/6
f 393/3/6 394/3/6 396/3/6
f 396/3/6 394/3/6 397/3/6
f 398/1/6 399/1/6 402/1/6
f 402/1/6 399/1/6 403/1/6
f 400/1/6 401/1/6 404/1/6
f 404/1/6 401/1/6 405/1/6
f 406/1/6 407/1/6 408/1/6
f 408/1/6 407/1/6 409/1/6
f 410/1/6 411/1/6 414/1/6
f 414/1/6 411/1/6 415/1/6
f 415/1/6 411/1/6 416/1/6
f 412/1/6 413/1/6 417/1/6
f 417/1/6 413/1/6 418/1/6
f 418/1/6 413/1/6 419/1/6
f 420/2/6 421/2/6 422/2/6
f 422/2/6 421/2/6 423/2/6
f 423/2/6 421/2/6 424/2/6
f 424/2/6 421/2/6 425/2/6
f 420/2/6 422/2/6 426/2/6
f 426/2/6 422/2/6 427/2/6
f 428/2/6 429/2/6 430/2/6
f 430/2/6 429/2/6 431/2/6
f 432/2/6 433/2/6 434/2/6
f 434/2/6 433/2/6 435/2/6
